<svg width="1077" height="139" viewBox="0 0 1077 139" fill="none" xmlns="http://www.w3.org/2000/svg">
<path d="M154.497 52.4629C154.497 59.0189 153.229 65.2038 150.693 71.0176C148.219 76.7695 144.818 81.8102 140.488 86.1396C136.221 90.4072 131.211 93.778 125.459 96.252C119.707 98.7259 113.553 99.9629 106.997 99.9629H30.6445V81.2227H106.997C110.955 81.2227 114.666 80.4805 118.13 78.9961C121.593 77.4499 124.593 75.3779 127.129 72.7803C129.727 70.1826 131.768 67.152 133.252 63.6885C134.736 60.1631 135.479 56.4212 135.479 52.4629C135.479 48.5046 134.736 44.7936 133.252 41.3301C131.768 37.8665 129.727 34.8669 127.129 32.3311C124.593 29.7334 121.593 27.6924 118.13 26.208C114.666 24.7236 110.955 23.9814 106.997 23.9814H19.9756V138H0.957031V4.96289H106.997C113.553 4.96289 119.707 6.23079 125.459 8.7666C131.211 11.2406 136.221 14.6423 140.488 18.9717C144.818 23.2393 148.219 28.249 150.693 34.001C153.229 39.7529 154.497 45.9069 154.497 52.4629ZM325.664 138H306.646V99.9629H200.513V81.0371H306.646V23.9814H238.457C231.963 23.9814 225.84 25.2493 220.088 27.7852C214.336 30.2591 209.326 33.6608 205.059 37.9902C200.791 42.2578 197.389 47.2676 194.854 53.0195C192.38 58.7715 191.143 64.9255 191.143 71.4814V138H172.124V71.4814C172.124 65.3584 172.897 59.4827 174.443 53.8545C176.051 48.1644 178.278 42.8763 181.123 37.9902C184.03 33.0423 187.493 28.5583 191.514 24.5381C195.596 20.4561 200.08 16.9616 204.966 14.0547C209.914 11.1478 215.202 8.92122 220.83 7.375C226.458 5.76693 232.334 4.96289 238.457 4.96289H325.664V138ZM506.201 99.9629C506.201 105.282 504.933 110.261 502.397 114.899C499.924 119.476 496.522 123.496 492.192 126.96C487.925 130.362 482.915 133.052 477.163 135.031C471.411 137.01 465.257 138 458.701 138H352.476V118.981H458.701C462.598 118.981 466.278 118.487 469.741 117.497C473.205 116.507 476.204 115.147 478.74 113.415C481.338 111.683 483.379 109.673 484.863 107.385C486.41 105.035 487.183 102.561 487.183 99.9629V90.5H399.976C393.42 90.5 387.235 89.263 381.421 86.7891C375.669 84.3151 370.628 80.9443 366.299 76.6768C362.031 72.3473 358.66 67.3066 356.187 61.5547C353.713 55.7409 352.476 49.556 352.476 43V4.96289H371.494V43C371.494 46.9583 372.236 50.6693 373.721 54.1328C375.205 57.5964 377.215 60.627 379.751 63.2246C382.349 65.7604 385.379 67.7705 388.843 69.2549C392.306 70.7393 396.017 71.4814 399.976 71.4814H487.183V4.96289H506.201V99.9629Z" fill="black"/>
<path d="M524.951 107.141L549.756 98.3516C549.756 101.607 550.667 104.471 552.49 106.945C554.313 109.419 556.136 111.047 557.959 111.828L560.693 113.195V138.586C549.626 138.586 540.186 133.768 532.373 124.133C527.555 118.013 525.081 112.349 524.951 107.141ZM526.514 38.7812C526.514 24.4583 532.633 13.7161 544.873 6.55469C550.472 3.16927 555.745 1.41146 560.693 1.28125V27.0625C557.438 27.974 555.029 30.3177 553.467 34.0938C552.946 35.2656 552.686 36.5026 552.686 37.8047C552.686 43.1432 556.657 47.7005 564.6 51.4766C566.292 52.2578 569.027 53.4297 572.803 54.9922C579.053 57.4661 583.48 59.4844 586.084 61.0469C596.631 67.2969 603.662 73.6771 607.178 80.1875C609.782 85.2656 611.084 90.9297 611.084 97.1797C611.084 109.029 606.592 119.185 597.607 127.648C589.925 134.94 581.201 138.586 571.436 138.586V113.195C576.514 112.544 580.094 109.875 582.178 105.188C583.089 103.104 583.545 100.826 583.545 98.3516C583.545 91.7109 578.597 86.2422 568.701 81.9453C566.878 81.1641 564.014 80.0573 560.107 78.625C555.55 77.0625 552.36 75.8255 550.537 74.9141C539.339 69.5755 532.178 62.6745 529.053 54.2109C527.36 49.6536 526.514 44.5104 526.514 38.7812ZM571.436 27.0625V1.28125C582.373 1.28125 591.553 5.90365 598.975 15.1484C603.271 20.6172 605.485 25.5651 605.615 29.9922L580.225 38.3906C580.225 32.9219 577.555 29.2109 572.217 27.2578C571.696 27.1276 571.436 27.0625 571.436 27.0625ZM623.193 138V1.28125H694.287V28.625H650.732V56.3594H675.928V83.8984H650.732V110.461H694.287V138H623.193ZM709.131 102.648V36.8281C709.131 29.276 711.93 21.9193 717.529 14.7578C724.951 5.2526 734.977 0.434896 747.607 0.304688V27.8438C742.139 27.974 738.623 30.513 737.061 35.4609C736.8 35.9818 736.67 36.4375 736.67 36.8281V102.648C736.67 104.732 737.777 106.75 739.99 108.703C742.074 110.526 744.613 111.438 747.607 111.438V138.977C733.024 138.977 722.021 132.857 714.6 120.617C710.954 114.367 709.131 108.378 709.131 102.648ZM758.154 138.977V111.438C758.154 111.438 759.652 110.852 762.646 109.68C764.469 108.378 765.706 107.01 766.357 105.578C767.008 103.885 767.334 101.477 767.334 98.3516V96.0078L794.287 102.453C794.287 113.781 789.73 123.156 780.615 130.578C773.714 136.177 766.227 138.977 758.154 138.977ZM758.154 27.8438V0.304688C767.66 0.304688 776.253 4.47135 783.936 12.8047C790.837 20.3568 794.287 28.4948 794.287 37.2188L767.334 44.25V41.3203C767.334 38.0651 767.008 35.6562 766.357 34.0938C765.837 32.7917 764.86 31.6198 763.428 30.5781C762.126 29.5365 760.954 28.8203 759.912 28.4297L758.154 27.8438ZM804.443 100.305V1.28125H831.982V100.305C832.113 105.643 835.107 109.159 840.967 110.852C841.878 111.112 842.529 111.242 842.92 111.242V138.977C835.368 138.977 827.816 136.307 820.264 130.969C809.847 123.286 804.574 113.065 804.443 100.305ZM853.467 138.977V111.242C855.811 111.242 858.285 110.135 860.889 107.922C863.102 105.839 864.274 103.299 864.404 100.305V1.28125H891.748V100.305C891.748 115.018 885.238 126.021 872.217 133.312C865.706 137.089 859.456 138.977 853.467 138.977ZM906.396 138V1.28125H933.936V138H906.396ZM944.482 82.1406V57.7266H947.021C955.355 57.7266 960.693 54.3411 963.037 47.5703C963.558 45.8776 963.818 44.1198 963.818 42.2969C963.818 35.3958 960.563 30.7734 954.053 28.4297C951.969 27.6484 949.626 27.2578 947.021 27.2578H944.482V1.28125H948.779C965.837 1.54167 977.816 7.59635 984.717 19.4453C987.972 25.0443 989.6 31.3594 989.6 38.3906C989.469 51.8021 985.042 62.0885 976.318 69.25C982.829 73.4167 986.995 80.9688 988.818 91.9062C988.949 93.2083 989.079 94.4453 989.209 95.6172L992.529 138H967.139L964.209 103.234C963.167 92.8177 960.173 86.3724 955.225 83.8984C952.881 82.8568 950.016 82.2708 946.631 82.1406H944.482ZM1005.03 138V1.28125H1076.12V28.625H1032.57V56.3594H1057.76V83.8984H1032.57V110.461H1076.12V138H1005.03Z" fill="#2188D8"/>
</svg>
