<svg width="487" height="69" viewBox="0 0 487 69" fill="none" xmlns="http://www.w3.org/2000/svg">
<g clip-path="url(#clip0_105_15)">
<path d="M83.1211 55.4401H92.4822V41.7826H107.051C116.61 41.7826 125.501 34.6187 125.501 25.1791C125.501 15.2044 117.078 8.57604 107.051 8.57604H83.1211V55.4401ZM116.143 25.1791C116.143 29.5982 112.199 33.0122 107.052 33.0122H92.4822V17.2109H107.051C112.266 17.2109 116.143 20.5604 116.143 25.1791ZM173.161 55.4401V21.9648H164.872L163.936 26.3832C160.527 22.9017 155.581 20.9605 149.966 20.9605C138.803 20.9605 130.515 28.5251 130.515 38.7685C130.515 48.8784 138.87 56.443 149.966 56.443C155.648 56.443 160.527 54.4358 163.936 51.0196L164.872 55.4387L173.161 55.4401ZM139.87 38.7697C139.87 33.2138 144.95 29.196 151.969 29.196C158.988 29.196 163.801 33.145 163.801 38.7697C163.801 44.3266 159.054 48.1454 151.969 48.1454C144.953 48.1427 139.873 44.1924 139.873 38.7697H139.87ZM205.378 68.6286L222.158 21.9648H212.331L203.507 46.467H197.558L188.669 21.9648H178.776L190.942 55.4401H200.233L195.487 68.6286H205.378ZM268.746 42.3853C268.746 20.6931 235.658 31.5392 235.658 21.1619C235.658 17.8157 239.937 15.3384 246.488 15.3384C252.503 15.3384 257.449 18.2845 258.252 21.8994H267.943C267.211 13.396 258.656 7.57114 246.488 7.57114C234.992 7.57114 226.302 12.6597 226.302 20.8945C226.302 42.3179 259.39 30.9377 259.39 42.1178C259.39 45.7334 254.912 48.4109 248.56 48.4109C241.742 48.4109 236.462 45.5322 235.459 41.0462H225.703C226.372 50.2846 236.129 56.4441 248.695 56.4441C261.196 56.4441 268.746 50.1513 268.746 42.3853ZM314.668 41.0462C314.778 40.2929 314.823 39.5315 314.799 38.7704C314.799 28.1256 306.245 20.9625 294.813 20.9625C283.249 20.9625 274.692 28.5272 274.692 38.7704C274.692 48.8803 283.315 56.4449 294.813 56.4449C303.971 56.4449 311.124 52.0272 313.664 45.1986H304.171C302.434 47.6074 299.227 49.0809 295.215 49.0809C289.599 49.0809 285.32 45.8681 284.318 41.0469L314.668 41.0462ZM284.32 36.3585C285.323 31.6705 289.401 28.5251 294.815 28.5251C300.296 28.5251 304.242 31.6053 305.176 36.3585H284.32ZM329.841 38.7678C329.841 33.3444 334.524 29.4613 340.938 29.4613C345.948 29.4613 349.694 31.5373 351.231 34.9509H360.924C359.118 26.382 351.231 20.9599 340.936 20.9599C329.172 20.9599 320.482 28.5244 320.482 38.7678C320.482 48.8777 329.238 56.4422 340.936 56.4422C351.298 56.4422 359.252 50.8861 360.99 42.3834H351.298C349.763 45.8648 346.019 47.8734 340.938 47.8734C334.59 47.8753 329.844 44.1257 329.844 38.7697L329.841 38.7678ZM398.359 37.5648C398.359 43.5228 394.216 47.7413 388.334 47.7413C382.385 47.7413 378.173 43.5909 378.173 37.5648V21.9648H368.811V37.5648C368.811 48.6783 375.831 56.4441 385.856 56.4441C388.327 56.4534 390.759 55.861 392.95 54.718C395.137 53.5749 397.017 51.9156 398.423 49.8832L399.295 55.4401H407.719V21.9648H398.356L398.359 37.5648ZM442.612 20.9619C435.459 20.9619 429.909 24.7108 426.835 30.6677L425.833 21.9648H417.478V55.4401H426.838V45.9321C426.838 36.5605 432.653 30.8689 442.614 30.8689L442.612 20.9619ZM486.862 41.0462C486.971 40.2929 487.017 39.5315 486.995 38.7704C486.995 28.1256 478.438 20.9625 467.009 20.9625C455.445 20.9625 446.888 28.5272 446.888 38.7704C446.888 48.8803 455.511 56.4449 467.009 56.4449C476.167 56.4449 483.318 52.0272 485.857 45.1986H476.364C474.628 47.6074 471.421 49.0809 467.408 49.0809C461.792 49.0809 457.516 45.8681 456.511 41.0469L486.862 41.0462ZM456.514 36.3585C457.516 31.6705 461.595 28.5251 467.009 28.5251C472.49 28.5251 476.436 31.6053 477.372 36.3585H456.514Z" fill="black"/>
<path d="M31.9517 6.13266e-08C38.2715 -0.000391706 44.4498 1.87624 49.7046 5.39259C54.9597 8.90895 59.0558 13.907 61.4744 19.7549C63.8932 25.6028 64.5263 32.0377 63.2936 38.2458C62.0609 44.4541 59.0177 50.1566 54.549 54.6325C50.0802 59.1085 44.3866 62.1569 38.1882 63.3917C31.9897 64.6268 25.5649 63.9932 19.726 61.5711C13.8871 59.1487 8.89652 55.0468 5.38529 49.7837C1.8741 44.5209 1.21049e-08 38.3333 0 32.0034C-1.62313e-08 23.5159 3.36626 15.3761 9.35831 9.37429C15.3504 3.37253 23.4774 0.000525376 31.9517 6.13266e-08Z" fill="#DFF34F"/>
<path d="M17.1377 48.4689L47.0991 18.4443L17.1594 18.4536V8.54968L54.1003 8.53845H64.0032V18.4424H63.9921L64.0032 55.4546H54.1147L54.1055 25.4365L24.13 55.4751L17.1377 48.4689Z" fill="url(#paint0_linear_105_15)"/>
</g>
<defs>
<linearGradient id="paint0_linear_105_15" x1="17.1377" y1="26.2336" x2="94.8906" y2="35.359" gradientUnits="userSpaceOnUse">
<stop stop-color="#5223BC"/>
<stop offset="1" stop-color="#DFF34F"/>
</linearGradient>
<clipPath id="clip0_105_15">
<rect width="487" height="69" fill="white"/>
</clipPath>
</defs>
</svg>
